<?xml version="1.0" encoding="UTF-8"?>
<svg xmlns="http://www.w3.org/2000/svg" viewBox="0 0 128 128" width="256" height="256">
  <defs>
    <linearGradient id="homeGrad" x1="0%" y1="0%" x2="100%" y2="100%">
      <stop offset="0%" style="stop-color:#03A9F4"/>
      <stop offset="100%" style="stop-color:#4CAF50"/>
    </linearGradient>
    <linearGradient id="waveGrad" x1="0%" y1="0%" x2="100%" y2="0%">
      <stop offset="0%" style="stop-color:#4CAF50"/>
      <stop offset="100%" style="stop-color:#8BC34A"/>
    </linearGradient>
  </defs>
  
  <!-- Home shape -->
  <path fill="url(#homeGrad)" d="M64 16L16 56V112C16 114.2 17.8 116 20 116H52V80H76V116H108C110.2 116 112 114.2 112 112V56L64 16Z"/>
  <path fill="#1976D2" d="M64 16L16 56H28L64 26L100 56H112L64 16Z"/>
  
  <!-- Broadcast/exposure waves emanating from chimney area -->
  <path fill="none" stroke="url(#waveGrad)" stroke-width="4" stroke-linecap="round" d="M80 36 Q92 32 96 20"/>
  <path fill="none" stroke="url(#waveGrad)" stroke-width="3.5" stroke-linecap="round" d="M84 42 Q100 36 108 22"/>
  <path fill="none" stroke="url(#waveGrad)" stroke-width="3" stroke-linecap="round" d="M88 48 Q106 42 118 26"/>
  
  <!-- Exposure indicator dots -->
  <circle cx="100" cy="16" r="6" fill="#4CAF50"/>
  <circle cx="112" cy="24" r="5" fill="#8BC34A"/>
  <circle cx="120" cy="34" r="4" fill="#CDDC39"/>
</svg>
